<svg xmlns="http://www.w3.org/2000/svg" data-name="Layer 1" viewBox="0 0 100 125" x="0px" y="0px"><title>Artboard 6</title><path d="M22.74,45a3,3,0,0,0,2.38-.87l7.29-7.29a5.41,5.41,0,0,0,0-7.66l-7.29-7.29A3,3,0,0,0,23,21l-.3,0a3,3,0,0,0-2.22,1.36,3.05,3.05,0,0,0,.48,3.82l6.8,6.8L21,39.72a3.16,3.16,0,0,0-.51,4A3,3,0,0,0,22.74,45Z"/><path d="M71,55H33a9,9,0,0,0-9,9v6a9,9,0,0,0,9,9H71a9,9,0,0,0,9-9V64A9,9,0,0,0,71,55Zm3,15a3,3,0,0,1-3,3H33a3,3,0,0,1-3-3V64a3,3,0,0,1,3-3H71a3,3,0,0,1,3,3Z"/><path d="M71,21H53a9,9,0,0,0-9,9v6a9,9,0,0,0,9,9H71a9,9,0,0,0,9-9V30A9,9,0,0,0,71,21Zm3,15a3,3,0,0,1-3,3H53a3,3,0,0,1-3-3V30a3,3,0,0,1,3-3H71a3,3,0,0,1,3,3Z"/><text x="0" y="115" fill="#000000" font-size="5px" font-weight="bold" font-family="'Helvetica Neue', Helvetica, Arial-Unicode, Arial, Sans-serif">Created by Gregor Cresnar</text><text x="0" y="120" fill="#000000" font-size="5px" font-weight="bold" font-family="'Helvetica Neue', Helvetica, Arial-Unicode, Arial, Sans-serif">from the Noun Project</text></svg>