<svg xmlns="http://www.w3.org/2000/svg" viewBox="0 0 73 53.75" fill="none" x="0px" y="0px"><path fill-rule="evenodd" clip-rule="evenodd" d="M28.3848 2.92893C24.4795 -0.976311 18.1479 -0.976311 14.2426 2.92893L2.92893 14.2426C-0.976311 18.1479 -0.97631 24.4795 2.92893 28.3848L14.2426 39.6985C18.1479 43.6037 24.4795 43.6037 28.3848 39.6985L28.6517 39.4315L28.9187 39.6985C32.8239 43.6037 39.1556 43.6037 43.0608 39.6985L43.4391 39.3202L43.8173 39.6985C47.7226 43.6037 54.0542 43.6037 57.9595 39.6985L69.2732 28.3848C73.1784 24.4795 73.1784 18.1479 69.2732 14.2426L57.9595 2.92893C54.0542 -0.97631 47.7226 -0.97631 43.8173 2.92893L43.4391 3.3072L43.0608 2.92893C39.1556 -0.97631 32.8239 -0.97631 28.9187 2.92893L28.6517 3.19588L28.3848 2.92893ZM46.2675 6.13563L54.3745 14.2426C58.2797 18.1479 58.2797 24.4795 54.3745 28.3848L46.2675 36.4918L46.6458 36.8701C48.9889 39.2132 52.7879 39.2132 55.131 36.8701L66.4448 25.5563C68.7879 23.2132 68.7879 19.4142 66.4448 17.0711L55.1311 5.75736C52.7879 3.41421 48.9889 3.41421 46.6458 5.75736L46.2675 6.13563ZM31.7471 36.8701L31.4801 36.6031L39.6985 28.3848C43.6037 24.4795 43.6037 18.1479 39.6985 14.2426L31.4801 6.0243L31.7471 5.75736C34.0902 3.41421 37.8892 3.41421 40.2324 5.75736L51.5461 17.0711C53.8892 19.4142 53.8892 23.2132 51.5461 25.5563L40.2324 36.8701C37.8892 39.2132 34.0902 39.2132 31.7471 36.8701ZM17.0711 5.75736C19.4142 3.41421 23.2132 3.41421 25.5563 5.75736L36.8701 17.0711C39.2132 19.4142 39.2132 23.2132 36.8701 25.5563L25.5563 36.8701C23.2132 39.2132 19.4142 39.2132 17.0711 36.8701L5.75736 25.5563C3.41421 23.2132 3.41421 19.4142 5.75736 17.0711L17.0711 5.75736Z" fill="black"/><text x="0" y="58" fill="#000000" font-size="5px" font-weight="bold" font-family="'Helvetica Neue', Helvetica, Arial-Unicode, Arial, Sans-serif">Created by Ally Hwang</text><text x="0" y="63" fill="#000000" font-size="5px" font-weight="bold" font-family="'Helvetica Neue', Helvetica, Arial-Unicode, Arial, Sans-serif">from the Noun Project</text></svg>